<svg width="233" height="115" viewBox="0 0 233 115" fill="none" xmlns="http://www.w3.org/2000/svg">
<path d="M232.784 84.8927L226.577 113.684C226.577 113.684 226.717 114.078 226.312 114.222C226.312 114.222 226.312 114.222 225.906 114.366L225.501 114.51L225.095 114.655L224.69 114.799L224.284 114.943L198.367 102.452C197.276 101.954 197.262 100.629 197.793 99.5542C198.059 99.0166 198.465 98.8724 198.87 98.7281C199.681 98.4396 200.227 98.6886 200.772 98.9377L221.906 108.257C187.646 26.0703 91.1124 -16.6859 3.50912 14.4746C2.29241 14.9074 1.20147 14.4093 0.781778 13.2294C0.362088 12.0495 0.893434 10.9743 2.11015 10.5415C90.9301 -21.0517 188.443 24.4576 223.528 107.68L228.714 85.0111C228.7 83.687 229.371 83.0051 230.183 82.7166C230.588 82.5723 230.588 82.5723 230.994 82.4281C231.945 82.5329 232.77 83.5685 232.784 84.8927Z" fill="#E63616"/>
</svg>
