<svg width="19" height="15" viewBox="0 0 19 15" fill="none" xmlns="http://www.w3.org/2000/svg">
<g clip-path="url(#clip0)">
<path d="M17.3976 5.49163C17.8554 5.36611 18.1129 5.27197 18.1416 5.27197C18.4849 5.14644 18.6566 4.76987 18.5708 4.39331C18.4563 4.01674 18.1129 3.82845 17.7696 3.92259C17.7696 3.92259 17.3404 4.0795 16.5964 4.26778C15.9955 2.82427 15.1657 1.50628 14.0783 0.345188L14.0211 0.282427C13.878 0.0941423 13.7063 0 13.506 0H5.49397C5.29367 0 5.09337 0.0941423 4.97891 0.282427L4.92169 0.345188C3.83434 1.50628 3.00452 2.82427 2.43223 4.2364C1.88855 4.11088 1.51657 3.98536 1.28765 3.92259C0.972891 3.82845 0.600903 3.98536 0.486446 4.29916C0.486446 4.29916 0.25753 4.98954 0.944277 5.27197C1.08735 5.30335 1.28765 5.36611 1.57379 5.46025C0.572289 6.5272 0 8.3159 0 9.69665V10.8577C0 12.1444 0.572289 12.8347 1.25904 13.2113V14.3096C1.25904 14.6862 1.54518 15.0314 1.91717 15.0314H3.69126C4.03464 15.0314 4.3494 14.7176 4.3494 14.3096V13.6192H14.7078V14.3096C14.7078 14.6862 14.994 15.0314 15.366 15.0314H17.1401C17.4834 15.0314 17.7982 14.7176 17.7982 14.3096V13.2113C18.5135 12.8347 19.0572 12.1757 19.0572 10.8577V9.69665C19 8.28452 18.3132 6.5272 17.3976 5.49163ZM5.7515 1.41213H13.2199C14.0783 2.35356 14.7651 3.38912 15.2515 4.48745H15.2229C15.1657 4.48745 15.1084 4.51883 15.0512 4.55021C13.6491 4.80126 11.7605 5.02092 9.52861 5.02092C7.15361 5.02092 5.17922 4.76987 3.71988 4.51883C4.20632 3.38912 4.89307 2.35356 5.7515 1.41213ZM1.28765 9.69665C1.28765 8.06485 2.34638 5.93096 3.43373 5.93096C3.46235 5.93096 3.46235 5.93096 3.49096 5.93096C5.00753 6.21339 7.06777 6.49582 9.5 6.49582C12.0181 6.49582 14.0783 6.21339 15.5663 5.93096C15.7952 5.96234 16.0241 6.08787 16.2816 6.30753C17.1114 7.09205 17.6837 8.72385 17.6837 9.69665V10.8577C17.6837 11.7678 17.3404 12.2071 15.366 12.2071H3.60542C1.63102 12.2071 1.28765 11.7678 1.28765 10.8577V9.69665ZM2.54669 13.5879C2.60391 13.5879 2.68976 13.5879 2.74699 13.6192L2.54669 13.5879ZM16.4533 13.5879H16.253C16.3102 13.5879 16.3675 13.5879 16.4533 13.5879Z" fill="black"/>
<path d="M7.38274 10.7949H11.7321C12.0755 10.7949 12.3903 10.4811 12.3903 10.0732C12.3903 9.66524 12.1041 9.35143 11.7321 9.35143H7.38274C7.03937 9.35143 6.72461 9.66524 6.72461 10.0732C6.72461 10.4811 7.03937 10.7949 7.38274 10.7949Z" fill="black"/>
<path d="M2.9472 10.8264H4.83575C5.17912 10.8264 5.49388 10.5126 5.49388 10.1047C5.49388 9.69672 5.20774 9.38291 4.83575 9.38291H2.9472C2.60382 9.38291 2.28906 9.69672 2.28906 10.1047C2.28906 10.5126 2.60382 10.8264 2.9472 10.8264Z" fill="black"/>
<path d="M14.1643 10.8264H16.0242C16.3676 10.8264 16.6537 10.5126 16.6537 10.1046C16.6537 9.69665 16.3962 9.41423 16.0242 9.41423H14.1357C13.7923 9.41423 13.4775 9.72803 13.4775 10.136C13.4775 10.5439 13.7923 10.8264 14.1643 10.8264Z" fill="black"/>
</g>
<defs>
<clipPath id="clip0">
<rect width="19" height="15" fill="white"/>
</clipPath>
</defs>
</svg>
