<svg width="15" height="15" viewBox="0 0 15 15" fill="none" xmlns="http://www.w3.org/2000/svg">
<path fill-rule="evenodd" clip-rule="evenodd" d="M6.83333 7.53333V2.86667C6.83333 2.5 7.13333 2.2 7.5 2.2C7.86667 2.2 8.16667 2.5 8.16667 2.86667V6.88333H11.3167C11.6833 6.88333 11.9833 7.18333 11.9833 7.55C11.9833 7.91667 11.6833 8.21667 11.3167 8.21667H7.5C7.13333 8.21667 6.83333 7.91667 6.83333 7.53333ZM15 7.5C15 3.35 11.65 0 7.5 0C3.35 0 0 3.35 0 7.5C0 11.65 3.35 15 7.5 15C11.65 15 15 11.65 15 7.5ZM1.33333 7.5C1.33333 4.1 4.1 1.33333 7.5 1.33333C10.9 1.33333 13.6667 4.1 13.6667 7.5C13.6667 10.9 10.9 13.6667 7.5 13.6667C4.1 13.6667 1.33333 10.9 1.33333 7.5Z" fill="black"/>
</svg>
