<svg width="17" height="17" viewBox="0 0 17 17" fill="none" xmlns="http://www.w3.org/2000/svg">
<path d="M6.09341 11.0942C6.1581 10.8842 6.22279 10.6592 6.28747 10.4492C6.36833 10.1942 6.44919 10.1642 6.69177 10.2842C7.11224 10.4942 7.56505 10.5992 8.01786 10.6592C8.32513 10.6892 8.61622 10.6592 8.89115 10.5542C9.40865 10.3442 9.4895 9.78916 9.05286 9.44416C8.90732 9.32416 8.72943 9.24916 8.55154 9.17416C8.09872 8.99416 7.61357 8.84416 7.1931 8.60416C6.49771 8.21416 6.0449 7.68916 6.10958 6.89416C6.17427 6.00916 6.70794 5.43916 7.5974 5.15416C7.95318 5.03416 7.96935 5.03416 7.96935 4.68916C7.96935 4.56916 7.96935 4.44916 7.96935 4.32916C7.96935 4.05916 8.01786 4.01416 8.30896 4.01416C8.38982 4.01416 8.48685 4.01416 8.56771 4.01416C9.18224 4.01416 9.18224 4.01416 9.18224 4.58416C9.18224 4.98916 9.18224 4.98916 9.61888 5.04916C9.94232 5.09416 10.2658 5.18416 10.5568 5.30416C10.7186 5.37916 10.7833 5.48416 10.7347 5.64916C10.6539 5.88916 10.5892 6.14416 10.5083 6.38416C10.4275 6.60916 10.3466 6.63916 10.1202 6.53416C9.65122 6.32416 9.1499 6.23416 8.61622 6.26416C8.47068 6.26416 8.3413 6.29416 8.21193 6.33916C7.75911 6.51916 7.67825 6.98416 8.06638 7.26916C8.26044 7.41916 8.48685 7.52416 8.71325 7.61416C9.11755 7.76416 9.52185 7.91416 9.8938 8.10916C11.1067 8.73916 11.4301 10.1492 10.573 11.1092C10.2658 11.4542 9.86146 11.6942 9.39247 11.8142C9.18224 11.8592 9.10138 11.9642 9.10138 12.1592C9.11755 12.3542 9.10138 12.5492 9.10138 12.7442C9.10138 12.9242 9.00435 13.0142 8.82646 13.0142C8.60005 13.0142 8.37365 13.0142 8.14724 13.0142C7.95318 13.0142 7.85615 12.9092 7.85615 12.7292C7.85615 12.5942 7.85615 12.4442 7.85615 12.3092C7.85615 11.9942 7.83997 11.9792 7.51654 11.9342C7.09607 11.8742 6.69177 11.7842 6.31982 11.6192C6.0449 11.4542 6.01255 11.3792 6.09341 11.0942Z" fill="black"/>
<path d="M8.5 16C12.6421 16 16 12.6421 16 8.5C16 4.35786 12.6421 1 8.5 1C4.35786 1 1 4.35786 1 8.5C1 12.6421 4.35786 16 8.5 16Z" stroke="black" stroke-width="1.3" stroke-miterlimit="10"/>
</svg>
