<svg width="53" height="53" viewBox="0 0 53 53" fill="none" xmlns="http://www.w3.org/2000/svg">
<path d="M47.7415 2.79492H2.71216V50.8262H47.7415V2.79492Z" fill="white"/>
<path d="M6.625 0H46.375C50.0291 0 53 2.9709 53 6.625V46.375C53 50.0291 50.0291 53 46.375 53H6.625C2.9709 53 0 50.0291 0 46.375V6.625C0 2.9709 2.9709 0 6.625 0Z" fill="#3B5998"/>
<path d="M29.7089 47.2031V28.3115H36.0441L36.9964 20.9516H29.7089V16.252C29.7089 14.1195 30.2989 12.6703 33.3527 12.6703H37.2552V6.08672C36.572 5.99355 34.2636 5.79688 31.5722 5.79688C25.9513 5.79688 22.1109 9.22324 22.1109 15.5273V20.9516H15.755V28.3115H22.1109V47.2031H29.7089Z" fill="white"/>
</svg>
