<svg width="103" height="103" viewBox="0 0 103 103" fill="none" xmlns="http://www.w3.org/2000/svg">
<rect x="2" width="100" height="100" rx="17" fill="#E63616"/>
<path fill-rule="evenodd" clip-rule="evenodd" d="M32.0864 41.7394L26.6398 33.219L31.7089 25.1839H24.9681L22.7571 29.0666L20.5461 25.1839H13.8052L18.8744 33.219L13.4817 41.7394H20.1686L22.811 37.3713L25.3995 41.7394H32.0864ZM40.499 42.1169C34.6749 42.1169 31.2236 38.0724 31.2236 33.4347C31.2236 28.797 34.621 24.8064 40.499 24.8064C46.377 24.8064 49.7744 28.8509 49.7744 33.4347C49.7744 38.0724 46.377 42.1169 40.499 42.1169ZM40.499 36.6703C42.3864 36.6703 43.4649 35.2682 43.4649 33.4347C43.4649 31.6012 42.3864 30.1991 40.499 30.1991C38.6115 30.1991 37.5869 31.6012 37.5869 33.4347C37.533 35.2682 38.6115 36.6703 40.499 36.6703ZM51.7157 25.2378V31.7629C51.7157 35.3221 53.3874 37.641 57.8634 37.641C60.1283 37.641 61.9079 36.9399 62.8785 36.3467V41.7394H69.0262V25.2378H62.8785V31.4933C62.3932 31.8169 61.6382 32.1944 60.2361 32.1944C58.7801 32.1944 57.8634 31.5472 57.8634 29.8216V25.1839H51.7157V25.2378ZM72.3157 48.1567C72.9089 48.3184 74.2571 48.4263 74.6885 48.4263C78.1937 48.3184 80.8901 47.6174 82.4 43.7886L89.5183 25.2378H83.0471L79.8655 34.675L76.7377 25.2378H70.2665L76.7377 42.009L76.5759 42.3326C76.3602 42.764 75.6052 42.9797 74.4189 42.9797C73.9874 42.9797 73.5021 42.8718 73.1246 42.6561L72.3157 48.1567Z" fill="white"/>
<path d="M16.5016 59.0498C14.7759 59.0498 13.4817 57.7016 13.4817 56.0299C13.4817 54.3582 14.8299 53.01 16.5016 53.01C18.2272 53.01 19.5215 54.3582 19.5215 56.0299C19.5215 57.7016 18.2272 59.0498 16.5016 59.0498ZM17.1487 77.1152V60.6137H23.2964V77.1152H17.1487ZM23.8895 59.0498C22.2178 59.0498 20.8696 57.7016 20.8696 56.0299C20.8696 54.3582 22.2178 53.01 23.8895 53.01C25.6152 53.01 26.9634 54.3582 26.9634 56.0299C26.9634 57.7016 25.6152 59.0498 23.8895 59.0498Z" fill="white"/>
<path d="M59.5351 77.1153V65.9525H55.1131V60.6138H69.9969V65.9525H65.6827V77.1153H59.5351Z" fill="white"/>
<path d="M72.2079 77.1153V60.6138H78.3555V67.9478L83.3168 60.6138H89.5184V77.1153H83.3707V69.296L78.0859 77.1153H72.2079Z" fill="white"/>
<path fill-rule="evenodd" clip-rule="evenodd" d="M43.7885 66.0064L55.6524 77.8703C49.0733 84.4494 38.4498 84.4494 31.9246 77.8703C25.3456 71.2912 25.3456 60.6677 31.9246 54.1425C38.5037 47.5635 49.1272 47.5635 55.6524 54.1425L43.7885 66.0064Z" fill="#FFD125"/>
</svg>
