<svg width="53" height="53" viewBox="0 0 53 53" fill="none" xmlns="http://www.w3.org/2000/svg">
<path d="M53 40.899C53 47.5861 47.5861 53 40.899 53H12.101C5.41387 53 0 47.5861 0 40.899V12.1113C0 5.42422 5.42422 0 12.1113 0H40.7127C47.5033 0 53 5.49668 53 12.2873V40.899Z" fill="url(#paint0_radial)"/>
<path d="M33.8703 7.30811H19.1297C12.5979 7.30811 7.29785 12.6081 7.29785 19.1399V33.8702C7.29785 40.4021 12.5875 45.6917 19.1297 45.6917H33.86C40.3918 45.6917 45.6814 40.4021 45.6814 33.8702V19.1399C45.6918 12.5978 40.4021 7.30811 33.8703 7.30811ZM42.0066 32.452C42.0066 37.7313 37.7314 42.0065 32.4521 42.0065H20.5479C15.2686 42.0065 10.9934 37.7313 10.9934 32.452V20.5478C10.9934 15.2685 15.2686 10.9933 20.5479 10.9933H32.4521C37.7314 10.9933 42.0066 15.2788 42.0066 20.5478V32.452Z" fill="white"/>
<path d="M27.0175 16.459C21.4277 16.459 16.9041 20.9826 16.9041 26.5725C16.9041 32.152 21.4277 36.6859 27.0175 36.6859C32.597 36.6859 37.131 32.1623 37.131 26.5725C37.1207 20.9826 32.597 16.459 27.0175 16.459ZM27.0175 32.6488C23.6533 32.6488 20.9308 29.9264 20.9308 26.5621C20.9308 23.1979 23.6533 20.4754 27.0175 20.4754C30.3714 20.4754 33.1042 23.1979 33.1042 26.5621C33.0939 29.9264 30.3714 32.6488 27.0175 32.6488Z" fill="white"/>
<path d="M38.9944 16.3036C38.9944 17.7218 37.8453 18.8708 36.4272 18.8708C35.009 18.8708 33.86 17.7218 33.86 16.3036C33.86 14.8854 35.009 13.7261 36.4272 13.7261C37.8453 13.7261 38.9944 14.8751 38.9944 16.3036Z" fill="white"/>
<defs>
<radialGradient id="paint0_radial" cx="0" cy="0" r="1" gradientUnits="userSpaceOnUse" gradientTransform="translate(15.524 57.1033) scale(70.2329 70.2309)">
<stop offset="0.0969388" stop-color="#FFD87A"/>
<stop offset="0.1426" stop-color="#FCCE78"/>
<stop offset="0.2263" stop-color="#F5B471"/>
<stop offset="0.3378" stop-color="#EB8D65"/>
<stop offset="0.449" stop-color="#E36058"/>
<stop offset="0.6786" stop-color="#CD3694"/>
<stop offset="1" stop-color="#6668B0"/>
</radialGradient>
</defs>
</svg>
