<svg width="184" height="38" viewBox="0 0 184 38" fill="none" xmlns="http://www.w3.org/2000/svg">
<g clip-path="url(#clip0)">
<path fill-rule="evenodd" clip-rule="evenodd" d="M20.773 30.6214L14.7095 21.3243L20.3238 12.5068H12.8381L10.3678 16.7495L7.89748 12.5068H0.374288L6.02604 21.3243L0 30.6214H7.44833L10.3678 25.8252L13.2124 30.6214H20.773ZM30.1302 31.0641C23.6176 31.0641 19.7998 26.6 19.7998 21.5087C19.7998 16.4544 23.6176 12.0272 30.1302 12.0272C36.6802 12.0272 40.498 16.4544 40.498 21.5087C40.498 26.6 36.6802 31.0641 30.1302 31.0641ZM30.1302 25.1243C32.2636 25.1243 33.4614 23.5748 33.4614 21.5456C33.4614 19.5534 32.2636 18.0039 30.1302 18.0039C28.0342 18.0039 26.8365 19.5534 26.8365 21.5456C26.8739 23.5748 28.0342 25.1243 30.1302 25.1243ZM42.6688 12.5068V19.6641C42.6688 23.5748 44.5403 26.1204 49.5183 26.1204C52.026 26.1204 54.0472 25.3825 55.1326 24.6816V30.6214H61.9821V12.5068H55.1326V19.3689C54.5712 19.7379 53.7478 20.1437 52.2132 20.1437C50.5663 20.1437 49.5557 19.4427 49.5557 17.5612V12.5068H42.6688ZM65.6127 37.7049C66.249 37.8893 67.7836 38 68.2701 38C72.1627 37.8893 75.1945 37.1146 76.8413 32.9087L84.8511 12.5068H77.6273L74.0716 22.8369L70.5533 12.5068H63.3295L70.5533 30.9534L70.4036 31.3223C70.179 31.8019 69.3556 32.0233 68.0081 32.0233C67.559 32.0233 66.9976 31.9126 66.5484 31.6913L65.6127 37.7049Z" fill="#E63616"/>
<path d="M102.555 10.7728C100.646 10.7728 99.1489 9.29709 99.1489 7.41554C99.1489 5.53399 100.646 4.05826 102.555 4.05826C104.464 4.05826 105.961 5.53399 105.961 7.41554C105.961 9.29709 104.464 10.7728 102.555 10.7728ZM103.266 30.6214V12.5068H110.116V30.6583L103.266 30.6214ZM110.789 10.7728C108.918 10.7728 107.383 9.29709 107.383 7.41554C107.383 5.53399 108.918 4.05826 110.789 4.05826C112.698 4.05826 114.233 5.53399 114.233 7.41554C114.233 9.29709 112.698 10.7728 110.789 10.7728Z" fill="#E63616"/>
<path d="M150.539 30.6214V18.3359H145.635V12.5068H162.254V18.3728H157.426V30.6583L150.539 30.6214Z" fill="#E63616"/>
<path d="M164.687 30.6214V12.5068H171.536V20.5864L177.076 12.5068H184V30.6583H177.151V22.0253L171.237 30.6214H164.687Z" fill="#E63616"/>
<path fill-rule="evenodd" clip-rule="evenodd" d="M132.947 18.4097L146.197 31.4699C138.898 38.6641 127.033 38.6641 119.735 31.4699C112.436 24.2757 112.436 12.5806 119.735 5.38641C127.033 -1.80776 138.898 -1.80776 146.197 5.38641L132.947 18.4097Z" fill="#FFD125"/>
</g>
<defs>
<clipPath id="clip0">
<rect width="184" height="38" fill="white"/>
</clipPath>
</defs>
</svg>
