<svg width="106" height="78" viewBox="0 0 106 78" fill="none" xmlns="http://www.w3.org/2000/svg">
<circle cx="55" cy="39" r="35" fill="#E63616" fill-opacity="0.63"/>
<path d="M54 77.9C53.8 77.9 53.6 77.9 53.4 77.9C32.2 77.6 15 60.1 15.1 38.8C15.1 17.4 32.6 0 54 0H54.5C75.8 0.3 93 17.8 92.9 39C93 49.3 88.9 59 81.6 66.4C74.2 73.8 64.4 77.9 54 77.9ZM54 1.7C33.5 1.7 16.8 18.4 16.7 38.9C16.7 59.2 33.1 76 53.4 76.3H54C64 76.3 73.4 72.4 80.4 65.3C87.4 58.2 91.3 48.9 91.2 39.1C91.3 18.8 74.8 2.1 54.5 1.8L54 1.7Z" fill="white"/>
<path d="M54 4.69999H54.3C63.4 4.79999 72 8.39999 78.4 15C84.8 21.5 88.3 30 88.2 39C88.2 48 84.7 56.5 78.3 63C71.8 69.6 63.1 73.2 54 73.2H53.8C35 73.1 19.7 57.7 19.8 38.8C19.9 20 35.2 4.69999 54 4.69999ZM54 3.89999C35 3.89999 19 19.2 19 38.8C18.9 59 35.4 73.9 53.8 74C53.9 74 53.9 74 54 74C73.2 74 89.2 58.2 89 39C89.2 20 73.7 3.99999 54.3 3.89999C54.2 3.89999 54.1 3.89999 54 3.89999Z" fill="white"/>
<path d="M54.1 67.1L62 59.7C62.3 59.4 62.3 59 62 58.7C61.7 58.4 61.2 58.4 60.9 58.7L54.3 64.9V45.3C54.3 44.9 54 44.6 53.5 44.6C53 44.6 52.7 44.9 52.7 45.3V64.8L46.1 58.6C45.8 58.3 45.3 58.3 45 58.6C44.8 58.7 44.8 58.9 44.8 59.1C44.8 59.2 44.9 59.5 45 59.6L52.9 67C53.3 67.4 53.8 67.4 54.1 67.1Z" fill="white"/>
<path d="M30.7899 37V25.192H32.5899L34.8579 31.492C35.0019 31.9 35.1399 32.314 35.2719 32.734C35.4159 33.142 35.5599 33.55 35.7039 33.958H35.7759C35.9199 33.55 36.0519 33.142 36.1719 32.734C36.3039 32.314 36.4419 31.9 36.5859 31.492L38.8179 25.192H40.6359V37H39.2319V30.502C39.2319 29.974 39.2559 29.392 39.3039 28.756C39.3519 28.12 39.3939 27.538 39.4299 27.01H39.3579L38.4219 29.692L36.1899 35.812H35.1999L32.9679 29.692L32.0319 27.01H31.9599C31.9959 27.538 32.0319 28.12 32.0679 28.756C32.1159 29.392 32.1399 29.974 32.1399 30.502V37H30.7899ZM43.868 37V25.192H50.672V26.452H45.362V30.16H49.844V31.438H45.362V35.722H50.852V37H43.868ZM53.3602 37V25.192H54.8542V30.142H60.3442V25.192H61.8562V37H60.3442V31.438H54.8542V37H53.3602ZM74.0304 37.216C73.3344 37.216 72.6984 37.084 72.1224 36.82C71.5464 36.544 71.0484 36.16 70.6284 35.668C70.2204 35.164 69.8904 34.558 69.6384 33.85C69.3984 33.13 69.2604 32.326 69.2244 31.438H66.5964V37H65.1024V25.192H66.5964V30.142H69.2604C69.3324 29.338 69.4944 28.618 69.7464 27.982C70.0104 27.334 70.3464 26.788 70.7544 26.344C71.1624 25.9 71.6424 25.564 72.1944 25.336C72.7464 25.096 73.3584 24.976 74.0304 24.976C74.7504 24.976 75.4104 25.12 76.0104 25.408C76.6104 25.684 77.1204 26.086 77.5404 26.614C77.9724 27.13 78.3024 27.766 78.5304 28.522C78.7704 29.266 78.8904 30.106 78.8904 31.042C78.8904 31.99 78.7704 32.848 78.5304 33.616C78.3024 34.372 77.9724 35.02 77.5404 35.56C77.1204 36.088 76.6104 36.496 76.0104 36.784C75.4104 37.072 74.7504 37.216 74.0304 37.216ZM74.0304 35.902C74.5464 35.902 75.0084 35.788 75.4164 35.56C75.8244 35.332 76.1724 35.008 76.4604 34.588C76.7484 34.156 76.9644 33.646 77.1084 33.058C77.2644 32.458 77.3424 31.786 77.3424 31.042C77.3424 30.31 77.2644 29.65 77.1084 29.062C76.9644 28.474 76.7484 27.976 76.4604 27.568C76.1724 27.16 75.8244 26.848 75.4164 26.632C75.0084 26.404 74.5464 26.29 74.0304 26.29C73.5264 26.29 73.0704 26.404 72.6624 26.632C72.2544 26.848 71.9064 27.16 71.6184 27.568C71.3304 27.976 71.1084 28.474 70.9524 29.062C70.8084 29.65 70.7364 30.31 70.7364 31.042C70.7364 31.786 70.8084 32.458 70.9524 33.058C71.1084 33.646 71.3304 34.156 71.6184 34.588C71.9064 35.008 72.2544 35.332 72.6624 35.56C73.0704 35.788 73.5264 35.902 74.0304 35.902Z" fill="white"/>
<path fill-rule="evenodd" clip-rule="evenodd" d="M103.8 11.4C103.9 12.1 104 12.6 104 13.1C104.1 17.2 104.2 21.3 104.2 25.4C104.2 30.2 104.1 34.9 104.1 39.7C104.1 43.5 104.3 47.3 104.6 51C104.8 54.4 105.2 57.8 105 61.1C104.9 62.8 104.7 64.5 104.2 66.1C104 66.7 103.7 67.4 103.3 67.9C102.9 68.5 102.4 68.5 101.9 67.9C101.6 67.6 101.4 67.2 101.3 66.8C100.7 65.4 100.5 64 100.4 62.5C100.1 60 100.3 57.5 100.5 54.9C100.7 52.7 100.8 50.4 100.9 48.2C101 44.4 101.1 40.7 101.2 36.9C101.2 36.4 101.2 36 100.9 35.6C99.4 34 98.6 32 98.1 30C97.1 25.8 97.1 21.7 98.5 17.6C99.2 15.6 100.2 13.7 101.7 12.3C102.1 11.9 102.7 11.6 103.2 11.3C103.3 11.3 103.5 11.4 103.8 11.4Z" fill="white"/>
<path fill-rule="evenodd" clip-rule="evenodd" d="M3.4 30.3C3.1 30.3 2.8 30.2 2.5 30.2C1.5 30.1 0.8 29.6 0.5 28.7C0.3 28 0 27.3 0 26.6C0 23.1 0 19.6 0 16.2C0 14.8 0.2 13.4 0.3 12.1C0.3 12 0.3 11.8 0.4 11.7C0.5 11.6 0.7 11.4 0.8 11.4C0.9 11.4 1.1 11.6 1.1 11.8C1.2 12.4 1.2 13 1.3 13.5C1.4 16.7 1.5 20 1.6 23.2C1.6 23.8 1.8 24.5 1.9 25.1C1.9 25.2 2.1 25.3 2.2 25.4C2.7 25.2 2.8 24.7 2.8 24.3C2.9 23 2.9 21.8 3 20.5C3.1 17.9 3.1 15.2 3.2 12.6C3.2 12.3 3.3 12 3.3 11.7C3.3 11.6 3.5 11.4 3.6 11.4C3.7 11.4 3.9 11.6 4 11.7C4.1 12.2 4.1 12.7 4.2 13.2C4.3 16.5 4.4 19.7 4.5 23C4.5 23.7 4.7 24.3 4.8 25C4.8 25.1 5 25.3 5.1 25.4C5.6 25.1 5.6 24.7 5.7 24.3C5.8 22.7 5.8 21.1 5.9 19.5C6 17.3 6 15.1 6.1 12.9C6.1 12.5 6.2 12.2 6.2 11.8C6.2 11.7 6.4 11.5 6.5 11.5C6.6 11.5 6.8 11.7 6.9 11.8C7 12.2 7 12.6 7 13C7 16.2 7.1 19.6 7.2 23C7.2 23.5 7.3 24 7.3 24.6C7.4 24.9 7.5 25.2 7.7 25.5C8.3 25.2 8.3 24.8 8.3 24.4C8.4 22.9 8.4 21.3 8.5 19.8C8.6 17.5 8.6 15.2 8.7 13C8.7 12.7 8.7 12.3 8.8 12C8.8 11.8 9 11.7 9.2 11.6C9.3 11.7 9.5 11.9 9.6 12C9.7 12.1 9.7 12.2 9.7 12.4C10.2 17.2 10.2 22 10.1 26.8C10.1 27.4 9.9 28 9.7 28.6C9.3 29.7 8.6 30.4 7.4 30.4C7.2 30.4 6.9 30.5 6.6 30.5C6.6 31.8 6.5 33.2 6.5 34.5C6.5 37.2 6.5 39.9 6.6 42.6C6.7 45.8 6.9 49.1 7.1 52.3C7.2 54.5 7.4 56.7 7.5 58.9C7.6 61.3 7.4 63.6 6.8 65.9C6.6 66.5 6.4 67.1 6.2 67.6C6 68.1 5.7 68.5 5.2 68.5C4.6 68.5 4.3 68 4.1 67.5C3.7 66.4 3.3 65.4 3.1 64.2C2.7 61.8 2.6 59.4 2.8 57C3 54.5 3 51.9 3.3 49.3C3.8 43.5 3.6 37.6 3.7 31.8C3.7 31.4 3.7 31 3.7 30.6C3.5 30.6 3.5 30.5 3.4 30.3Z" fill="white"/>
</svg>
